<mxfile host="app.diagrams.net" agent="Mozilla/5.0 (Windows NT 10.0; Win64; x64) AppleWebKit/537.36 (KHTML, like Gecko) Chrome/129.0.0.0 Safari/537.36" version="24.7.17">
  <diagram name="P치gina-1" id="ogve0MRP4cOIE7sz4yCe">
    <mxGraphModel grid="1" page="1" gridSize="10" guides="1" tooltips="1" connect="1" arrows="1" fold="1" pageScale="1" pageWidth="827" pageHeight="1169" math="0" shadow="0">
      <root>
        <mxCell id="0" />
        <mxCell id="1" parent="0" />
        <mxCell id="vaPYxBuo6luscDLbWpTV-23" style="edgeStyle=orthogonalEdgeStyle;rounded=0;orthogonalLoop=1;jettySize=auto;html=1;exitX=0.5;exitY=0.5;exitDx=0;exitDy=0;exitPerimeter=0;entryX=0;entryY=0.5;entryDx=0;entryDy=0;" edge="1" parent="1" source="vaPYxBuo6luscDLbWpTV-1" target="vaPYxBuo6luscDLbWpTV-4">
          <mxGeometry relative="1" as="geometry" />
        </mxCell>
        <mxCell id="vaPYxBuo6luscDLbWpTV-24" style="edgeStyle=orthogonalEdgeStyle;rounded=0;orthogonalLoop=1;jettySize=auto;html=1;exitX=0.5;exitY=0.5;exitDx=0;exitDy=0;exitPerimeter=0;entryX=0;entryY=0.5;entryDx=0;entryDy=0;" edge="1" parent="1" source="vaPYxBuo6luscDLbWpTV-1" target="vaPYxBuo6luscDLbWpTV-5">
          <mxGeometry relative="1" as="geometry" />
        </mxCell>
        <mxCell id="vaPYxBuo6luscDLbWpTV-25" style="edgeStyle=orthogonalEdgeStyle;rounded=0;orthogonalLoop=1;jettySize=auto;html=1;exitX=0.5;exitY=0.5;exitDx=0;exitDy=0;exitPerimeter=0;entryX=0;entryY=0.5;entryDx=0;entryDy=0;" edge="1" parent="1" source="vaPYxBuo6luscDLbWpTV-1" target="vaPYxBuo6luscDLbWpTV-7">
          <mxGeometry relative="1" as="geometry" />
        </mxCell>
        <mxCell id="vaPYxBuo6luscDLbWpTV-26" style="edgeStyle=orthogonalEdgeStyle;rounded=0;orthogonalLoop=1;jettySize=auto;html=1;exitX=0.5;exitY=0.5;exitDx=0;exitDy=0;exitPerimeter=0;entryX=0;entryY=0.5;entryDx=0;entryDy=0;" edge="1" parent="1" source="vaPYxBuo6luscDLbWpTV-1" target="vaPYxBuo6luscDLbWpTV-6">
          <mxGeometry relative="1" as="geometry" />
        </mxCell>
        <mxCell id="vaPYxBuo6luscDLbWpTV-1" value="Usuario" style="shape=umlActor;verticalLabelPosition=bottom;verticalAlign=top;html=1;outlineConnect=0;fillColor=#B9E0A5;" vertex="1" parent="1">
          <mxGeometry x="90" y="130" width="30" height="60" as="geometry" />
        </mxCell>
        <mxCell id="vaPYxBuo6luscDLbWpTV-2" value="" style="swimlane;startSize=0;" vertex="1" parent="1">
          <mxGeometry x="140" y="-100" width="580" height="510" as="geometry" />
        </mxCell>
        <mxCell id="vaPYxBuo6luscDLbWpTV-11" style="edgeStyle=orthogonalEdgeStyle;rounded=0;orthogonalLoop=1;jettySize=auto;html=1;exitX=1;exitY=0.5;exitDx=0;exitDy=0;entryX=0;entryY=0.5;entryDx=0;entryDy=0;" edge="1" parent="vaPYxBuo6luscDLbWpTV-2" source="vaPYxBuo6luscDLbWpTV-4" target="vaPYxBuo6luscDLbWpTV-10">
          <mxGeometry relative="1" as="geometry" />
        </mxCell>
        <mxCell id="vaPYxBuo6luscDLbWpTV-4" value="Creaci칩n de ordenes de compra" style="ellipse;whiteSpace=wrap;html=1;fillColor=#B9E0A5;" vertex="1" parent="vaPYxBuo6luscDLbWpTV-2">
          <mxGeometry x="60" y="50" width="120" height="80" as="geometry" />
        </mxCell>
        <mxCell id="vaPYxBuo6luscDLbWpTV-12" style="edgeStyle=orthogonalEdgeStyle;rounded=0;orthogonalLoop=1;jettySize=auto;html=1;exitX=1;exitY=0.5;exitDx=0;exitDy=0;entryX=0;entryY=0.5;entryDx=0;entryDy=0;" edge="1" parent="vaPYxBuo6luscDLbWpTV-2" source="vaPYxBuo6luscDLbWpTV-5" target="vaPYxBuo6luscDLbWpTV-9">
          <mxGeometry relative="1" as="geometry" />
        </mxCell>
        <mxCell id="vaPYxBuo6luscDLbWpTV-5" value="Ingresar facturas vincul치ndolas con ordenes de compra" style="ellipse;whiteSpace=wrap;html=1;fillColor=#B9E0A5;" vertex="1" parent="vaPYxBuo6luscDLbWpTV-2">
          <mxGeometry x="60" y="160" width="120" height="80" as="geometry" />
        </mxCell>
        <mxCell id="vaPYxBuo6luscDLbWpTV-14" style="edgeStyle=orthogonalEdgeStyle;rounded=0;orthogonalLoop=1;jettySize=auto;html=1;exitX=1;exitY=0.5;exitDx=0;exitDy=0;entryX=0;entryY=0.5;entryDx=0;entryDy=0;" edge="1" parent="vaPYxBuo6luscDLbWpTV-2" source="vaPYxBuo6luscDLbWpTV-6" target="vaPYxBuo6luscDLbWpTV-8">
          <mxGeometry relative="1" as="geometry" />
        </mxCell>
        <mxCell id="vaPYxBuo6luscDLbWpTV-6" value="Historial de transacciones de compras" style="ellipse;whiteSpace=wrap;html=1;fillColor=#B9E0A5;" vertex="1" parent="vaPYxBuo6luscDLbWpTV-2">
          <mxGeometry x="60" y="400" width="120" height="80" as="geometry" />
        </mxCell>
        <mxCell id="vaPYxBuo6luscDLbWpTV-13" style="edgeStyle=orthogonalEdgeStyle;rounded=0;orthogonalLoop=1;jettySize=auto;html=1;exitX=1;exitY=0.5;exitDx=0;exitDy=0;entryX=0;entryY=0.5;entryDx=0;entryDy=0;" edge="1" parent="vaPYxBuo6luscDLbWpTV-2" source="vaPYxBuo6luscDLbWpTV-7" target="vaPYxBuo6luscDLbWpTV-8">
          <mxGeometry relative="1" as="geometry" />
        </mxCell>
        <mxCell id="vaPYxBuo6luscDLbWpTV-7" value="Generar reportes de facturas pagadas y no pagadas" style="ellipse;whiteSpace=wrap;html=1;fillColor=#B9E0A5;" vertex="1" parent="vaPYxBuo6luscDLbWpTV-2">
          <mxGeometry x="60" y="280" width="120" height="80" as="geometry" />
        </mxCell>
        <mxCell id="vaPYxBuo6luscDLbWpTV-8" value="mostrar resultado" style="ellipse;whiteSpace=wrap;html=1;fillColor=#E6D0DE;" vertex="1" parent="vaPYxBuo6luscDLbWpTV-2">
          <mxGeometry x="280" y="340" width="120" height="80" as="geometry" />
        </mxCell>
        <mxCell id="vaPYxBuo6luscDLbWpTV-17" style="rounded=0;orthogonalLoop=1;jettySize=auto;html=1;exitX=1;exitY=0.5;exitDx=0;exitDy=0;" edge="1" parent="vaPYxBuo6luscDLbWpTV-2" source="vaPYxBuo6luscDLbWpTV-9">
          <mxGeometry relative="1" as="geometry">
            <mxPoint x="440" y="140" as="targetPoint" />
          </mxGeometry>
        </mxCell>
        <mxCell id="vaPYxBuo6luscDLbWpTV-9" value="Ingresadas correctamente" style="ellipse;whiteSpace=wrap;html=1;fillColor=#E6D0DE;" vertex="1" parent="vaPYxBuo6luscDLbWpTV-2">
          <mxGeometry x="280" y="160" width="120" height="80" as="geometry" />
        </mxCell>
        <mxCell id="vaPYxBuo6luscDLbWpTV-16" style="rounded=0;orthogonalLoop=1;jettySize=auto;html=1;exitX=1;exitY=0.5;exitDx=0;exitDy=0;entryX=0;entryY=0.5;entryDx=0;entryDy=0;" edge="1" parent="vaPYxBuo6luscDLbWpTV-2" source="vaPYxBuo6luscDLbWpTV-10" target="vaPYxBuo6luscDLbWpTV-15">
          <mxGeometry relative="1" as="geometry" />
        </mxCell>
        <mxCell id="vaPYxBuo6luscDLbWpTV-10" value="Creaci칩n exitosa" style="ellipse;whiteSpace=wrap;html=1;fillColor=#E6D0DE;" vertex="1" parent="vaPYxBuo6luscDLbWpTV-2">
          <mxGeometry x="280" y="50" width="120" height="80" as="geometry" />
        </mxCell>
        <mxCell id="vaPYxBuo6luscDLbWpTV-15" value="Guardar" style="ellipse;whiteSpace=wrap;html=1;fillColor=#E6D0DE;" vertex="1" parent="vaPYxBuo6luscDLbWpTV-2">
          <mxGeometry x="440" y="110" width="120" height="80" as="geometry" />
        </mxCell>
        <mxCell id="vaPYxBuo6luscDLbWpTV-19" style="rounded=0;orthogonalLoop=1;jettySize=auto;html=1;exitX=0.5;exitY=0.5;exitDx=0;exitDy=0;exitPerimeter=0;entryX=1;entryY=0.5;entryDx=0;entryDy=0;" edge="1" parent="1" source="vaPYxBuo6luscDLbWpTV-18" target="vaPYxBuo6luscDLbWpTV-8">
          <mxGeometry relative="1" as="geometry" />
        </mxCell>
        <mxCell id="vaPYxBuo6luscDLbWpTV-20" style="rounded=0;orthogonalLoop=1;jettySize=auto;html=1;exitX=0.5;exitY=0.5;exitDx=0;exitDy=0;exitPerimeter=0;entryX=1;entryY=0.5;entryDx=0;entryDy=0;" edge="1" parent="1" source="vaPYxBuo6luscDLbWpTV-18" target="vaPYxBuo6luscDLbWpTV-15">
          <mxGeometry relative="1" as="geometry" />
        </mxCell>
        <mxCell id="vaPYxBuo6luscDLbWpTV-21" style="edgeStyle=orthogonalEdgeStyle;rounded=0;orthogonalLoop=1;jettySize=auto;html=1;exitX=0.5;exitY=0;exitDx=0;exitDy=0;exitPerimeter=0;entryX=0.5;entryY=0;entryDx=0;entryDy=0;" edge="1" parent="1" source="vaPYxBuo6luscDLbWpTV-18" target="vaPYxBuo6luscDLbWpTV-10">
          <mxGeometry relative="1" as="geometry" />
        </mxCell>
        <mxCell id="vaPYxBuo6luscDLbWpTV-22" style="rounded=0;orthogonalLoop=1;jettySize=auto;html=1;exitX=0.5;exitY=0.5;exitDx=0;exitDy=0;exitPerimeter=0;" edge="1" parent="1" source="vaPYxBuo6luscDLbWpTV-18" target="vaPYxBuo6luscDLbWpTV-9">
          <mxGeometry relative="1" as="geometry" />
        </mxCell>
        <mxCell id="vaPYxBuo6luscDLbWpTV-18" value="Sistema" style="shape=umlActor;verticalLabelPosition=bottom;verticalAlign=top;html=1;outlineConnect=0;fillColor=#E6D0DE;" vertex="1" parent="1">
          <mxGeometry x="760" y="130" width="30" height="60" as="geometry" />
        </mxCell>
        <mxCell id="vaPYxBuo6luscDLbWpTV-27" value="&lt;font style=&quot;font-size: 24px;&quot;&gt;Compra y proveedores&lt;/font&gt;" style="rounded=0;whiteSpace=wrap;html=1;" vertex="1" parent="1">
          <mxGeometry x="140" y="-160" width="580" height="60" as="geometry" />
        </mxCell>
      </root>
    </mxGraphModel>
  </diagram>
</mxfile>
